<svg width="33" height="26" viewBox="0 0 33 26" fill="none" xmlns="http://www.w3.org/2000/svg">
<path d="M0 19.5H6.57371V26H0V19.5Z" fill="white"/>
<path d="M0 13H6.57371V19.5H0V13Z" fill="white"/>
<path d="M0 6.5H6.57371V13H0V6.5Z" fill="white"/>
<path d="M6.57371 0H13.1474V6.5H6.57371V0Z" fill="white"/>
<path d="M13.2789 6.5H19.8526V13H13.2789V6.5Z" fill="white"/>
<path d="M13.2789 13H19.8526V19.5H13.2789V13Z" fill="white"/>
<path d="M19.8526 19.5H26.4263V26H19.8526V19.5Z" fill="white"/>
<path d="M26.4263 13H33V19.5H26.4263V13Z" fill="white"/>
<path d="M26.4263 6.5H33V13H26.4263V6.5Z" fill="white"/>
<path d="M26.4263 0H33V6.5H26.4263V0Z" fill="white"/>
</svg>
